PathFileType	4	(X/Y/Z)	D:\TRACE\v60_Jaco2_6-2-23\BothDRS_Motion1_8-platform.trc
DataRate	CameraRate	NumFrames	NumMarkers	Units	OrigDataRate	OrigDataStartFrame	OrigNumFrames
100.00	100.00	      44	5	mm	100.00	1	      7500
Frame#	Time	Left_Front			Right_Front			Left_Aft			Right_Aft			Post			
		X1	Y1	Z1	X2	Y2	Z2	X3	Y3	Z3	X4	Y4	Z4	X5	Y5	Z5	

1	0.000	-800.59851	8.69831	-638.94812	769.31604	9.88561	-644.32629	-709.06793	8.32180	496.16107	733.30872	7.11563	505.85968	-14.17751	1307.71582	-962.35510	
2	0.010	-800.59332	8.73878	-638.93048	769.33301	9.89422	-644.33905	-709.10297	8.34139	496.12009	733.32184	7.09244	505.85876	-14.20830	1307.68665	-962.33801	
3	0.020	-800.61078	8.71026	-638.94989	769.25208	9.97439	-644.33136	-708.78040	8.08984	496.09778	733.26343	7.08976	505.85028	-14.25993	1307.69214	-962.36603	
4	0.030	-800.53448	8.68408	-639.03033	769.33447	9.91013	-644.34906	-708.78137	8.09191	496.03308	733.33478	7.08669	505.84598	-14.29288	1307.70862	-962.32605	
5	0.040	-800.57544	8.74158	-639.00311	769.38336	9.92944	-644.33624	-708.75018	8.09832	496.05368	733.43597	7.11640	505.84726	-14.24134	1307.72913	-962.37207	
6	0.050	-800.58057	8.68259	-638.97522	769.36652	9.92861	-644.33984	-709.04913	8.32762	496.12613	733.38379	7.12673	505.84772	-14.25813	1307.68933	-962.36133	
7	0.060	-800.57379	8.62386	-638.99695	769.35229	9.91475	-644.34540	-708.74915	8.06894	496.03610	733.35504	7.11505	505.85706	-14.20706	1307.67468	-962.35089	
8	0.070	-800.59143	8.71251	-638.97308	769.26733	9.93572	-644.30945	-708.77557	8.07074	496.03745	733.38416	7.10710	505.84384	-14.27856	1307.70374	-962.31409	
9	0.080	-800.60413	8.71843	-638.95392	769.31189	9.89809	-644.31000	-708.80786	8.11987	496.03922	733.23254	7.11350	505.85953	-14.26829	1307.66577	-962.35333	
10	0.090	-800.53986	8.67351	-639.00836	769.30646	9.91399	-644.35095	-708.76691	8.13989	496.06030	733.37738	7.13531	505.84576	-14.19347	1307.71692	-962.34393	
11	0.100	-800.58716	8.76374	-638.96442	769.32263	9.93617	-644.27411	-709.09320	8.38692	496.08884	733.33154	7.14933	505.85156	-14.21042	1307.70752	-962.36322	
12	0.110	-800.56897	8.66862	-638.97760	769.35883	9.92128	-644.28632	-708.78766	8.12529	496.04126	733.35236	7.13884	505.83078	-14.24226	1307.69885	-962.35449	
13	0.120	-800.58380	8.68935	-638.90210	769.37384	9.91490	-644.31897	-708.75848	8.08284	496.03046	733.34326	7.13079	505.84610	-14.20633	1307.71655	-962.34192	
14	0.130	-800.56390	8.66340	-638.96924	769.33728	9.92065	-644.33990	-709.04468	8.32922	496.14694	733.37769	7.13717	505.82733	-14.21349	1307.71631	-962.34882	
15	0.140	-800.54065	8.66101	-639.01904	769.32959	9.90884	-644.32123	-708.76685	8.08273	496.00616	733.39081	7.15704	505.84836	-14.27586	1307.73206	-962.37292	
16	0.150	-800.55426	8.70270	-639.01587	769.33850	9.91956	-644.33862	-709.04114	8.38303	496.07291	733.43097	7.16870	505.81812	-14.24196	1307.73950	-962.33179	
17	0.160	-800.55054	8.73459	-638.99091	769.30829	9.98376	-644.34143	-708.76233	8.16139	496.02704	733.46698	7.17232	505.82043	-14.24525	1307.74597	-962.36993	
18	0.170	-800.56842	8.73284	-638.97021	769.32764	9.91025	-644.33362	-708.81250	8.12385	496.05347	733.34857	7.15050	505.82474	-14.22818	1307.70667	-962.35425	
19	0.180	-800.55780	8.65059	-638.98932	769.37262	9.91521	-644.31647	-709.06964	8.33661	496.16003	733.31458	7.09469	505.84079	-14.24058	1307.70898	-962.36664	
20	0.190	-800.61493	8.75557	-638.95087	769.35602	9.91539	-644.31311	-709.07666	8.33025	496.10495	733.35675	7.10522	505.84610	-14.23420	1307.68738	-962.34845	
21	0.200	-800.58972	8.69797	-639.02734	769.29163	9.95552	-644.36847	-708.77240	8.09017	496.02924	733.36688	7.13536	505.83890	-14.29681	1307.71411	-962.37830	
22	0.210	-800.57568	8.70281	-638.97424	769.37463	9.92515	-644.32434	-708.76025	8.08075	496.03513	733.38855	7.13903	505.85068	-14.29399	1307.71265	-962.39227	
23	0.220	-800.58405	8.75926	-638.91913	769.38385	9.91673	-644.29822	-709.05133	8.36160	496.09738	733.41541	7.13866	505.83240	-14.24930	1307.72046	-962.34808	
24	0.230	-800.57739	8.74082	-638.92346	769.36609	9.93979	-644.30225	-708.76807	8.06770	496.04678	733.30261	7.13290	505.85172	-14.26919	1307.68140	-962.37048	
25	0.240	-800.60278	8.68980	-638.94293	769.30994	9.91049	-644.34821	-708.78326	8.06532	496.05139	733.32874	7.11883	505.86792	-14.21921	1307.69055	-962.34430	
26	0.250	-800.56451	8.67381	-638.91180	769.36951	9.91091	-644.31696	-709.09430	8.37958	496.11169	733.40192	7.12370	505.84103	-14.24670	1307.70496	-962.34497	
27	0.260	-800.56683	8.64460	-638.97943	769.33051	9.92597	-644.35889	-708.78210	8.09033	495.99100	733.36005	7.16864	505.83652	-14.21624	1307.72302	-962.33148	
28	0.270	-800.56018	8.71298	-639.02582	769.36084	9.92018	-644.30713	-708.75696	8.09289	496.02255	733.40302	7.17943	505.83243	-14.21939	1307.74414	-962.36029	
29	0.280	-800.56665	8.70466	-638.99182	769.35791	9.92167	-644.32385	-708.78156	8.10367	496.01166	733.41675	7.15726	505.82568	-14.19684	1307.74438	-962.33838	
30	0.290	-800.60828	8.72222	-638.92346	769.30280	9.91108	-644.30756	-709.09290	8.35388	496.14221	733.40051	7.13800	505.84116	-14.24619	1307.71960	-962.31110	
31	0.300	-800.58154	8.70462	-638.97913	769.37793	9.91769	-644.33588	-708.76001	8.08786	496.02188	733.39618	7.15705	505.85162	-14.17677	1307.71814	-962.36725	
32	0.310	-800.54608	8.71178	-638.97485	769.32629	9.92466	-644.34692	-709.10309	8.38880	496.09955	733.37897	7.16029	505.80872	-14.27355	1307.71240	-962.33917	
33	0.320	-800.57202	8.71255	-638.98303	769.35272	9.92495	-644.31921	-708.80426	8.14598	495.98715	733.38025	7.17408	505.84125	-14.17799	1307.72668	-962.29492	
34	0.330	-800.56848	8.74137	-639.00714	769.33759	9.92703	-644.35217	-708.77759	8.13008	495.99744	733.44763	7.16339	505.81888	-14.23504	1307.72241	-962.38971	
35	0.340	-800.55408	8.70277	-638.97229	769.34058	9.91121	-644.35974	-708.78485	8.08305	496.05106	733.39178	7.14799	505.84085	-14.24713	1307.70386	-962.39209	
36	0.350	-800.58704	8.69865	-638.94336	769.35394	9.92256	-644.33057	-709.08777	8.38513	496.12149	733.35907	7.14475	505.83850	-14.24156	1307.71924	-962.37994	
37	0.360	-800.58258	8.68234	-638.95081	769.32031	9.98653	-644.31873	-708.78821	8.12992	496.04572	733.35522	7.10605	505.85037	-14.21838	1307.66858	-962.38165	
38	0.370	-800.55951	8.72452	-638.96710	769.32983	9.92519	-644.30469	-708.81952	8.09116	495.99963	733.37158	7.15553	505.85782	-14.21300	1307.71655	-962.34479	
39	0.380	-800.57263	8.72505	-638.96973	769.33264	9.98104	-644.29614	-708.77924	8.07870	496.03479	733.38647	7.15136	505.82068	-14.24613	1307.74487	-962.35229	
40	0.390	-800.57019	8.71400	-638.97845	769.35596	9.91190	-644.33643	-709.10339	8.34968	496.09506	733.41638	7.16112	505.83191	-14.19255	1307.69641	-962.35004	
41	0.400	-800.60004	8.68328	-638.95197	769.32336	9.94231	-644.36163	-708.80371	8.08427	496.01843	733.40576	7.13223	505.83289	-14.19497	1307.67957	-962.34119	
42	0.410	-800.56287	8.63220	-638.98871	769.32202	9.87773	-644.35370	-708.79956	8.08488	496.02365	733.39978	7.15310	505.85471	-14.22688	1307.70190	-962.36572	
43	0.420	-800.55115	8.71471	-638.99701	769.36670	9.92849	-644.31683	-709.06561	8.38087	496.10428	733.39197	7.15285	505.81122	-14.18414	1307.66406	-962.33478	
44	0.430	-800.56647	8.76396	-638.97009	769.37830	9.92104	-644.29865	-709.08051	8.35232	496.08826	733.44067	7.16023	505.83792	-14.25190	1307.71643	-962.34369	
